<mxfile host="app.diagrams.net" modified="2024-02-23T14:09:48.872Z" agent="Mozilla/5.0 (Windows NT 10.0; Win64; x64) AppleWebKit/537.36 (KHTML, like Gecko) Chrome/121.0.0.0 Safari/537.36" etag="iuJlaLKSx2gmtBNwLRHQ" version="23.1.5" type="github" pages="2">
  <diagram name="ER" id="KBxNhcTJK4ZF1nwY1Zu5">
    <mxGraphModel dx="1434" dy="780" grid="1" gridSize="10" guides="1" tooltips="1" connect="1" arrows="1" fold="1" page="1" pageScale="1" pageWidth="1169" pageHeight="827" math="0" shadow="0">
      <root>
        <mxCell id="0" />
        <mxCell id="1" parent="0" />
        <mxCell id="AYmRxT0BlkEhMX28SqVd-1" value="Công ty dược phẩm" style="rounded=0;whiteSpace=wrap;html=1;" parent="1" vertex="1">
          <mxGeometry x="120" y="280" width="120" height="60" as="geometry" />
        </mxCell>
        <mxCell id="AYmRxT0BlkEhMX28SqVd-2" value="Thuốc" style="rounded=0;whiteSpace=wrap;html=1;" parent="1" vertex="1">
          <mxGeometry x="400" y="280" width="120" height="60" as="geometry" />
        </mxCell>
        <mxCell id="AYmRxT0BlkEhMX28SqVd-10" style="edgeStyle=orthogonalEdgeStyle;rounded=0;orthogonalLoop=1;jettySize=auto;html=1;entryX=0;entryY=0.5;entryDx=0;entryDy=0;endArrow=none;endFill=0;" parent="1" source="AYmRxT0BlkEhMX28SqVd-6" target="AYmRxT0BlkEhMX28SqVd-9" edge="1">
          <mxGeometry relative="1" as="geometry" />
        </mxCell>
        <mxCell id="AYmRxT0BlkEhMX28SqVd-12" value="" style="edgeStyle=orthogonalEdgeStyle;rounded=0;orthogonalLoop=1;jettySize=auto;html=1;endArrow=ERoneToMany;endFill=0;" parent="1" source="HR282m85-9Pj-9IuOOif-3" target="AYmRxT0BlkEhMX28SqVd-11" edge="1">
          <mxGeometry relative="1" as="geometry" />
        </mxCell>
        <mxCell id="AYmRxT0BlkEhMX28SqVd-6" value="Hiệu thuốc" style="rounded=0;whiteSpace=wrap;html=1;" parent="1" vertex="1">
          <mxGeometry x="680" y="280" width="120" height="60" as="geometry" />
        </mxCell>
        <mxCell id="AYmRxT0BlkEhMX28SqVd-9" value="&lt;u&gt;Mã hiệu thuốc&lt;/u&gt;" style="ellipse;whiteSpace=wrap;html=1;" parent="1" vertex="1">
          <mxGeometry x="870" y="290" width="90" height="40" as="geometry" />
        </mxCell>
        <mxCell id="AYmRxT0BlkEhMX28SqVd-25" style="edgeStyle=orthogonalEdgeStyle;rounded=0;orthogonalLoop=1;jettySize=auto;html=1;exitX=0.5;exitY=1;exitDx=0;exitDy=0;entryX=0.5;entryY=0;entryDx=0;entryDy=0;endArrow=ERone;endFill=0;startArrow=ERoneToMany;startFill=0;" parent="1" source="HR282m85-9Pj-9IuOOif-5" target="AYmRxT0BlkEhMX28SqVd-24" edge="1">
          <mxGeometry relative="1" as="geometry" />
        </mxCell>
        <mxCell id="AYmRxT0BlkEhMX28SqVd-11" value="Đơn thuốc" style="rounded=0;whiteSpace=wrap;html=1;" parent="1" vertex="1">
          <mxGeometry x="680" y="500" width="120" height="60" as="geometry" />
        </mxCell>
        <mxCell id="AYmRxT0BlkEhMX28SqVd-19" style="rounded=0;orthogonalLoop=1;jettySize=auto;html=1;exitX=0;exitY=0.5;exitDx=0;exitDy=0;endArrow=none;endFill=0;" parent="1" source="AYmRxT0BlkEhMX28SqVd-15" edge="1">
          <mxGeometry relative="1" as="geometry">
            <mxPoint x="800" y="530" as="targetPoint" />
          </mxGeometry>
        </mxCell>
        <mxCell id="AYmRxT0BlkEhMX28SqVd-15" value="Các loại thuốc" style="ellipse;whiteSpace=wrap;html=1;" parent="1" vertex="1">
          <mxGeometry x="870" y="440" width="90" height="40" as="geometry" />
        </mxCell>
        <mxCell id="AYmRxT0BlkEhMX28SqVd-20" style="rounded=0;orthogonalLoop=1;jettySize=auto;html=1;entryX=1;entryY=0.5;entryDx=0;entryDy=0;endArrow=none;endFill=0;exitX=0;exitY=0.5;exitDx=0;exitDy=0;" parent="1" source="AYmRxT0BlkEhMX28SqVd-16" target="AYmRxT0BlkEhMX28SqVd-11" edge="1">
          <mxGeometry relative="1" as="geometry" />
        </mxCell>
        <mxCell id="AYmRxT0BlkEhMX28SqVd-16" value="&lt;u&gt;Bác sĩ&lt;/u&gt;" style="ellipse;whiteSpace=wrap;html=1;" parent="1" vertex="1">
          <mxGeometry x="870" y="490" width="90" height="40" as="geometry" />
        </mxCell>
        <mxCell id="AYmRxT0BlkEhMX28SqVd-21" style="rounded=0;orthogonalLoop=1;jettySize=auto;html=1;endArrow=none;endFill=0;exitX=0;exitY=0.5;exitDx=0;exitDy=0;entryX=1;entryY=0.5;entryDx=0;entryDy=0;" parent="1" source="AYmRxT0BlkEhMX28SqVd-17" target="AYmRxT0BlkEhMX28SqVd-11" edge="1">
          <mxGeometry relative="1" as="geometry" />
        </mxCell>
        <mxCell id="AYmRxT0BlkEhMX28SqVd-17" value="Bệnh nhân" style="ellipse;whiteSpace=wrap;html=1;" parent="1" vertex="1">
          <mxGeometry x="870" y="540" width="90" height="40" as="geometry" />
        </mxCell>
        <mxCell id="AYmRxT0BlkEhMX28SqVd-22" style="rounded=0;orthogonalLoop=1;jettySize=auto;html=1;endArrow=none;endFill=0;exitX=0;exitY=0.5;exitDx=0;exitDy=0;" parent="1" source="AYmRxT0BlkEhMX28SqVd-18" edge="1">
          <mxGeometry relative="1" as="geometry">
            <mxPoint x="800" y="530" as="targetPoint" />
          </mxGeometry>
        </mxCell>
        <mxCell id="AYmRxT0BlkEhMX28SqVd-18" value="Ngày kê đơn" style="ellipse;whiteSpace=wrap;html=1;" parent="1" vertex="1">
          <mxGeometry x="870" y="590" width="90" height="40" as="geometry" />
        </mxCell>
        <mxCell id="AYmRxT0BlkEhMX28SqVd-23" value="Bệnh nhân" style="rounded=0;whiteSpace=wrap;html=1;" parent="1" vertex="1">
          <mxGeometry x="400" y="710" width="120" height="60" as="geometry" />
        </mxCell>
        <mxCell id="AYmRxT0BlkEhMX28SqVd-24" value="Bác sĩ" style="rounded=0;whiteSpace=wrap;html=1;" parent="1" vertex="1">
          <mxGeometry x="680" y="710" width="120" height="60" as="geometry" />
        </mxCell>
        <mxCell id="AYmRxT0BlkEhMX28SqVd-32" value="" style="edgeStyle=orthogonalEdgeStyle;rounded=0;orthogonalLoop=1;jettySize=auto;html=1;endArrow=none;endFill=0;" parent="1" source="AYmRxT0BlkEhMX28SqVd-30" target="AYmRxT0BlkEhMX28SqVd-31" edge="1">
          <mxGeometry relative="1" as="geometry" />
        </mxCell>
        <mxCell id="AYmRxT0BlkEhMX28SqVd-30" value="Hợp đồng" style="rounded=0;whiteSpace=wrap;html=1;" parent="1" vertex="1">
          <mxGeometry x="400" y="140" width="120" height="60" as="geometry" />
        </mxCell>
        <mxCell id="AYmRxT0BlkEhMX28SqVd-31" value="&lt;u&gt;Số hợp đồng&lt;/u&gt;" style="ellipse;whiteSpace=wrap;html=1;rounded=0;" parent="1" vertex="1">
          <mxGeometry x="410" y="60" width="100" height="40" as="geometry" />
        </mxCell>
        <mxCell id="HR282m85-9Pj-9IuOOif-4" value="" style="edgeStyle=orthogonalEdgeStyle;rounded=0;orthogonalLoop=1;jettySize=auto;html=1;endArrow=none;endFill=0;startArrow=ERone;startFill=0;" edge="1" parent="1" source="AYmRxT0BlkEhMX28SqVd-6" target="HR282m85-9Pj-9IuOOif-3">
          <mxGeometry relative="1" as="geometry">
            <mxPoint x="740" y="340" as="sourcePoint" />
            <mxPoint x="740" y="500" as="targetPoint" />
          </mxGeometry>
        </mxCell>
        <mxCell id="HR282m85-9Pj-9IuOOif-3" value="Lưu trữ" style="rhombus;whiteSpace=wrap;html=1;" vertex="1" parent="1">
          <mxGeometry x="700" y="390" width="80" height="60" as="geometry" />
        </mxCell>
        <mxCell id="HR282m85-9Pj-9IuOOif-6" value="" style="edgeStyle=orthogonalEdgeStyle;rounded=0;orthogonalLoop=1;jettySize=auto;html=1;exitX=0.5;exitY=1;exitDx=0;exitDy=0;entryX=0.5;entryY=0;entryDx=0;entryDy=0;endArrow=ERone;endFill=0;startArrow=ERoneToMany;startFill=0;" edge="1" parent="1" source="AYmRxT0BlkEhMX28SqVd-11" target="HR282m85-9Pj-9IuOOif-5">
          <mxGeometry relative="1" as="geometry">
            <mxPoint x="740" y="560" as="sourcePoint" />
            <mxPoint x="740" y="640" as="targetPoint" />
          </mxGeometry>
        </mxCell>
        <mxCell id="HR282m85-9Pj-9IuOOif-5" value="Viết" style="rhombus;whiteSpace=wrap;html=1;" vertex="1" parent="1">
          <mxGeometry x="700" y="610" width="80" height="60" as="geometry" />
        </mxCell>
        <mxCell id="HR282m85-9Pj-9IuOOif-10" style="edgeStyle=orthogonalEdgeStyle;rounded=0;orthogonalLoop=1;jettySize=auto;html=1;entryX=0;entryY=0.5;entryDx=0;entryDy=0;endArrow=ERoneToMany;endFill=0;" edge="1" parent="1" source="HR282m85-9Pj-9IuOOif-1" target="AYmRxT0BlkEhMX28SqVd-24">
          <mxGeometry relative="1" as="geometry" />
        </mxCell>
        <mxCell id="HR282m85-9Pj-9IuOOif-11" style="edgeStyle=orthogonalEdgeStyle;rounded=0;orthogonalLoop=1;jettySize=auto;html=1;entryX=1;entryY=0.5;entryDx=0;entryDy=0;endArrow=ERoneToMany;endFill=0;" edge="1" parent="1" source="HR282m85-9Pj-9IuOOif-1" target="AYmRxT0BlkEhMX28SqVd-23">
          <mxGeometry relative="1" as="geometry" />
        </mxCell>
        <mxCell id="HR282m85-9Pj-9IuOOif-1" value="Kê đơn" style="rhombus;whiteSpace=wrap;html=1;" vertex="1" parent="1">
          <mxGeometry x="560" y="710" width="80" height="60" as="geometry" />
        </mxCell>
        <mxCell id="HR282m85-9Pj-9IuOOif-13" style="edgeStyle=orthogonalEdgeStyle;rounded=0;orthogonalLoop=1;jettySize=auto;html=1;entryX=0.5;entryY=0;entryDx=0;entryDy=0;endArrow=ERone;endFill=0;" edge="1" parent="1" source="HR282m85-9Pj-9IuOOif-12" target="AYmRxT0BlkEhMX28SqVd-6">
          <mxGeometry relative="1" as="geometry" />
        </mxCell>
        <mxCell id="HR282m85-9Pj-9IuOOif-14" style="edgeStyle=orthogonalEdgeStyle;rounded=0;orthogonalLoop=1;jettySize=auto;html=1;entryX=1;entryY=0.5;entryDx=0;entryDy=0;endArrow=ERzeroToMany;endFill=0;" edge="1" parent="1" source="HR282m85-9Pj-9IuOOif-12" target="AYmRxT0BlkEhMX28SqVd-30">
          <mxGeometry relative="1" as="geometry" />
        </mxCell>
        <mxCell id="HR282m85-9Pj-9IuOOif-12" value="Ký" style="rhombus;whiteSpace=wrap;html=1;" vertex="1" parent="1">
          <mxGeometry x="700" y="140" width="80" height="60" as="geometry" />
        </mxCell>
        <mxCell id="HR282m85-9Pj-9IuOOif-16" style="edgeStyle=orthogonalEdgeStyle;rounded=0;orthogonalLoop=1;jettySize=auto;html=1;entryX=0;entryY=0.5;entryDx=0;entryDy=0;endArrow=ERmany;endFill=0;" edge="1" parent="1" source="HR282m85-9Pj-9IuOOif-15" target="AYmRxT0BlkEhMX28SqVd-30">
          <mxGeometry relative="1" as="geometry" />
        </mxCell>
        <mxCell id="HR282m85-9Pj-9IuOOif-17" style="edgeStyle=orthogonalEdgeStyle;rounded=0;orthogonalLoop=1;jettySize=auto;html=1;entryX=0.5;entryY=0;entryDx=0;entryDy=0;endArrow=ERone;endFill=0;" edge="1" parent="1" source="HR282m85-9Pj-9IuOOif-15" target="AYmRxT0BlkEhMX28SqVd-1">
          <mxGeometry relative="1" as="geometry" />
        </mxCell>
        <mxCell id="HR282m85-9Pj-9IuOOif-15" value="Ký" style="rhombus;whiteSpace=wrap;html=1;" vertex="1" parent="1">
          <mxGeometry x="140" y="140" width="80" height="60" as="geometry" />
        </mxCell>
        <mxCell id="HR282m85-9Pj-9IuOOif-19" style="edgeStyle=orthogonalEdgeStyle;rounded=0;orthogonalLoop=1;jettySize=auto;html=1;entryX=0;entryY=0.5;entryDx=0;entryDy=0;endArrow=ERone;endFill=0;" edge="1" parent="1" source="HR282m85-9Pj-9IuOOif-18" target="AYmRxT0BlkEhMX28SqVd-6">
          <mxGeometry relative="1" as="geometry" />
        </mxCell>
        <mxCell id="HR282m85-9Pj-9IuOOif-20" style="edgeStyle=orthogonalEdgeStyle;rounded=0;orthogonalLoop=1;jettySize=auto;html=1;entryX=1;entryY=0.5;entryDx=0;entryDy=0;endArrow=ERoneToMany;endFill=0;" edge="1" parent="1" source="HR282m85-9Pj-9IuOOif-18" target="AYmRxT0BlkEhMX28SqVd-2">
          <mxGeometry relative="1" as="geometry" />
        </mxCell>
        <mxCell id="HR282m85-9Pj-9IuOOif-18" value="Bán" style="rhombus;whiteSpace=wrap;html=1;" vertex="1" parent="1">
          <mxGeometry x="560" y="280" width="80" height="60" as="geometry" />
        </mxCell>
        <mxCell id="HR282m85-9Pj-9IuOOif-22" style="edgeStyle=orthogonalEdgeStyle;rounded=0;orthogonalLoop=1;jettySize=auto;html=1;entryX=0;entryY=0.5;entryDx=0;entryDy=0;endArrow=ERoneToMany;endFill=0;" edge="1" parent="1" source="HR282m85-9Pj-9IuOOif-21" target="AYmRxT0BlkEhMX28SqVd-2">
          <mxGeometry relative="1" as="geometry" />
        </mxCell>
        <mxCell id="HR282m85-9Pj-9IuOOif-23" style="edgeStyle=orthogonalEdgeStyle;rounded=0;orthogonalLoop=1;jettySize=auto;html=1;endArrow=ERone;endFill=0;" edge="1" parent="1" source="HR282m85-9Pj-9IuOOif-21" target="AYmRxT0BlkEhMX28SqVd-1">
          <mxGeometry relative="1" as="geometry" />
        </mxCell>
        <mxCell id="HR282m85-9Pj-9IuOOif-21" value="Bán" style="rhombus;whiteSpace=wrap;html=1;" vertex="1" parent="1">
          <mxGeometry x="280" y="280" width="80" height="60" as="geometry" />
        </mxCell>
      </root>
    </mxGraphModel>
  </diagram>
  <diagram id="3m4UzI0zLFcFoLHW_tT6" name="RM">
    <mxGraphModel dx="1687" dy="918" grid="1" gridSize="10" guides="1" tooltips="1" connect="1" arrows="1" fold="1" page="1" pageScale="1" pageWidth="1169" pageHeight="827" math="0" shadow="0">
      <root>
        <mxCell id="0" />
        <mxCell id="1" parent="0" />
        <mxCell id="ShUlsf3ZUrF_PwMzb8wt-29" style="rounded=0;orthogonalLoop=1;jettySize=auto;html=1;exitX=1;exitY=1;exitDx=0;exitDy=0;entryX=0;entryY=0;entryDx=0;entryDy=0;" edge="1" parent="1" source="ShUlsf3ZUrF_PwMzb8wt-1" target="ShUlsf3ZUrF_PwMzb8wt-21">
          <mxGeometry relative="1" as="geometry" />
        </mxCell>
        <mxCell id="ShUlsf3ZUrF_PwMzb8wt-1" value="Thuốc" style="rounded=0;whiteSpace=wrap;html=1;" vertex="1" parent="1">
          <mxGeometry x="40" y="250" width="120" height="60" as="geometry" />
        </mxCell>
        <mxCell id="ShUlsf3ZUrF_PwMzb8wt-28" style="rounded=0;orthogonalLoop=1;jettySize=auto;html=1;entryX=1;entryY=0;entryDx=0;entryDy=0;endArrow=none;endFill=0;startArrow=classic;startFill=1;exitX=0;exitY=1;exitDx=0;exitDy=0;" edge="1" parent="1" source="ShUlsf3ZUrF_PwMzb8wt-2" target="ShUlsf3ZUrF_PwMzb8wt-1">
          <mxGeometry relative="1" as="geometry" />
        </mxCell>
        <mxCell id="ShUlsf3ZUrF_PwMzb8wt-2" value="Công ty dược phẩm" style="rounded=0;whiteSpace=wrap;html=1;" vertex="1" parent="1">
          <mxGeometry x="240" y="110" width="120" height="60" as="geometry" />
        </mxCell>
        <mxCell id="ShUlsf3ZUrF_PwMzb8wt-30" style="edgeStyle=orthogonalEdgeStyle;rounded=0;orthogonalLoop=1;jettySize=auto;html=1;entryX=0.75;entryY=1;entryDx=0;entryDy=0;" edge="1" parent="1" source="ShUlsf3ZUrF_PwMzb8wt-8" target="ShUlsf3ZUrF_PwMzb8wt-2">
          <mxGeometry relative="1" as="geometry" />
        </mxCell>
        <mxCell id="ShUlsf3ZUrF_PwMzb8wt-31" style="edgeStyle=orthogonalEdgeStyle;rounded=0;orthogonalLoop=1;jettySize=auto;html=1;entryX=0.5;entryY=0;entryDx=0;entryDy=0;" edge="1" parent="1" source="ShUlsf3ZUrF_PwMzb8wt-8" target="ShUlsf3ZUrF_PwMzb8wt-21">
          <mxGeometry relative="1" as="geometry" />
        </mxCell>
        <mxCell id="ShUlsf3ZUrF_PwMzb8wt-8" value="Hợp đồng" style="shape=table;startSize=30;container=1;collapsible=1;childLayout=tableLayout;fixedRows=1;rowLines=0;fontStyle=1;align=center;resizeLast=1;html=1;" vertex="1" parent="1">
          <mxGeometry x="240" y="230" width="180" height="90" as="geometry" />
        </mxCell>
        <mxCell id="ShUlsf3ZUrF_PwMzb8wt-9" value="" style="shape=tableRow;horizontal=0;startSize=0;swimlaneHead=0;swimlaneBody=0;fillColor=none;collapsible=0;dropTarget=0;points=[[0,0.5],[1,0.5]];portConstraint=eastwest;top=0;left=0;right=0;bottom=1;" vertex="1" parent="ShUlsf3ZUrF_PwMzb8wt-8">
          <mxGeometry y="30" width="180" height="30" as="geometry" />
        </mxCell>
        <mxCell id="ShUlsf3ZUrF_PwMzb8wt-10" value="PK" style="shape=partialRectangle;connectable=0;fillColor=none;top=0;left=0;bottom=0;right=0;fontStyle=1;overflow=hidden;whiteSpace=wrap;html=1;" vertex="1" parent="ShUlsf3ZUrF_PwMzb8wt-9">
          <mxGeometry width="30" height="30" as="geometry">
            <mxRectangle width="30" height="30" as="alternateBounds" />
          </mxGeometry>
        </mxCell>
        <mxCell id="ShUlsf3ZUrF_PwMzb8wt-11" value="Số hợp đồng" style="shape=partialRectangle;connectable=0;fillColor=none;top=0;left=0;bottom=0;right=0;align=left;spacingLeft=6;fontStyle=5;overflow=hidden;whiteSpace=wrap;html=1;" vertex="1" parent="ShUlsf3ZUrF_PwMzb8wt-9">
          <mxGeometry x="30" width="150" height="30" as="geometry">
            <mxRectangle width="150" height="30" as="alternateBounds" />
          </mxGeometry>
        </mxCell>
        <mxCell id="ShUlsf3ZUrF_PwMzb8wt-12" value="" style="shape=tableRow;horizontal=0;startSize=0;swimlaneHead=0;swimlaneBody=0;fillColor=none;collapsible=0;dropTarget=0;points=[[0,0.5],[1,0.5]];portConstraint=eastwest;top=0;left=0;right=0;bottom=0;" vertex="1" parent="ShUlsf3ZUrF_PwMzb8wt-8">
          <mxGeometry y="60" width="180" height="30" as="geometry" />
        </mxCell>
        <mxCell id="ShUlsf3ZUrF_PwMzb8wt-13" value="" style="shape=partialRectangle;connectable=0;fillColor=none;top=0;left=0;bottom=0;right=0;editable=1;overflow=hidden;whiteSpace=wrap;html=1;" vertex="1" parent="ShUlsf3ZUrF_PwMzb8wt-12">
          <mxGeometry width="30" height="30" as="geometry">
            <mxRectangle width="30" height="30" as="alternateBounds" />
          </mxGeometry>
        </mxCell>
        <mxCell id="ShUlsf3ZUrF_PwMzb8wt-14" value="" style="shape=partialRectangle;connectable=0;fillColor=none;top=0;left=0;bottom=0;right=0;align=left;spacingLeft=6;overflow=hidden;whiteSpace=wrap;html=1;" vertex="1" parent="ShUlsf3ZUrF_PwMzb8wt-12">
          <mxGeometry x="30" width="150" height="30" as="geometry">
            <mxRectangle width="150" height="30" as="alternateBounds" />
          </mxGeometry>
        </mxCell>
        <mxCell id="ShUlsf3ZUrF_PwMzb8wt-21" value="Hiệu thuốc" style="shape=table;startSize=30;container=1;collapsible=1;childLayout=tableLayout;fixedRows=1;rowLines=0;fontStyle=1;align=center;resizeLast=1;html=1;" vertex="1" parent="1">
          <mxGeometry x="240" y="390" width="180" height="90" as="geometry" />
        </mxCell>
        <mxCell id="ShUlsf3ZUrF_PwMzb8wt-22" value="" style="shape=tableRow;horizontal=0;startSize=0;swimlaneHead=0;swimlaneBody=0;fillColor=none;collapsible=0;dropTarget=0;points=[[0,0.5],[1,0.5]];portConstraint=eastwest;top=0;left=0;right=0;bottom=1;" vertex="1" parent="ShUlsf3ZUrF_PwMzb8wt-21">
          <mxGeometry y="30" width="180" height="30" as="geometry" />
        </mxCell>
        <mxCell id="ShUlsf3ZUrF_PwMzb8wt-23" value="PK" style="shape=partialRectangle;connectable=0;fillColor=none;top=0;left=0;bottom=0;right=0;fontStyle=1;overflow=hidden;whiteSpace=wrap;html=1;" vertex="1" parent="ShUlsf3ZUrF_PwMzb8wt-22">
          <mxGeometry width="30" height="30" as="geometry">
            <mxRectangle width="30" height="30" as="alternateBounds" />
          </mxGeometry>
        </mxCell>
        <mxCell id="ShUlsf3ZUrF_PwMzb8wt-24" value="Mã hiệu thuốc" style="shape=partialRectangle;connectable=0;fillColor=none;top=0;left=0;bottom=0;right=0;align=left;spacingLeft=6;fontStyle=5;overflow=hidden;whiteSpace=wrap;html=1;" vertex="1" parent="ShUlsf3ZUrF_PwMzb8wt-22">
          <mxGeometry x="30" width="150" height="30" as="geometry">
            <mxRectangle width="150" height="30" as="alternateBounds" />
          </mxGeometry>
        </mxCell>
        <mxCell id="ShUlsf3ZUrF_PwMzb8wt-25" value="" style="shape=tableRow;horizontal=0;startSize=0;swimlaneHead=0;swimlaneBody=0;fillColor=none;collapsible=0;dropTarget=0;points=[[0,0.5],[1,0.5]];portConstraint=eastwest;top=0;left=0;right=0;bottom=0;" vertex="1" parent="ShUlsf3ZUrF_PwMzb8wt-21">
          <mxGeometry y="60" width="180" height="30" as="geometry" />
        </mxCell>
        <mxCell id="ShUlsf3ZUrF_PwMzb8wt-26" value="" style="shape=partialRectangle;connectable=0;fillColor=none;top=0;left=0;bottom=0;right=0;editable=1;overflow=hidden;whiteSpace=wrap;html=1;" vertex="1" parent="ShUlsf3ZUrF_PwMzb8wt-25">
          <mxGeometry width="30" height="30" as="geometry">
            <mxRectangle width="30" height="30" as="alternateBounds" />
          </mxGeometry>
        </mxCell>
        <mxCell id="ShUlsf3ZUrF_PwMzb8wt-27" value="" style="shape=partialRectangle;connectable=0;fillColor=none;top=0;left=0;bottom=0;right=0;align=left;spacingLeft=6;overflow=hidden;whiteSpace=wrap;html=1;" vertex="1" parent="ShUlsf3ZUrF_PwMzb8wt-25">
          <mxGeometry x="30" width="150" height="30" as="geometry">
            <mxRectangle width="150" height="30" as="alternateBounds" />
          </mxGeometry>
        </mxCell>
        <mxCell id="ShUlsf3ZUrF_PwMzb8wt-32" value="Đơn thuốc" style="shape=table;startSize=30;container=1;collapsible=1;childLayout=tableLayout;fixedRows=1;rowLines=0;fontStyle=1;align=center;resizeLast=1;html=1;" vertex="1" parent="1">
          <mxGeometry x="530" y="360" width="180" height="150" as="geometry" />
        </mxCell>
        <mxCell id="ShUlsf3ZUrF_PwMzb8wt-33" value="" style="shape=tableRow;horizontal=0;startSize=0;swimlaneHead=0;swimlaneBody=0;fillColor=none;collapsible=0;dropTarget=0;points=[[0,0.5],[1,0.5]];portConstraint=eastwest;top=0;left=0;right=0;bottom=1;" vertex="1" parent="ShUlsf3ZUrF_PwMzb8wt-32">
          <mxGeometry y="30" width="180" height="30" as="geometry" />
        </mxCell>
        <mxCell id="ShUlsf3ZUrF_PwMzb8wt-34" value="PK" style="shape=partialRectangle;connectable=0;fillColor=none;top=0;left=0;bottom=0;right=0;fontStyle=1;overflow=hidden;whiteSpace=wrap;html=1;" vertex="1" parent="ShUlsf3ZUrF_PwMzb8wt-33">
          <mxGeometry width="30" height="30" as="geometry">
            <mxRectangle width="30" height="30" as="alternateBounds" />
          </mxGeometry>
        </mxCell>
        <mxCell id="ShUlsf3ZUrF_PwMzb8wt-35" value="Bác sĩ" style="shape=partialRectangle;connectable=0;fillColor=none;top=0;left=0;bottom=0;right=0;align=left;spacingLeft=6;fontStyle=5;overflow=hidden;whiteSpace=wrap;html=1;" vertex="1" parent="ShUlsf3ZUrF_PwMzb8wt-33">
          <mxGeometry x="30" width="150" height="30" as="geometry">
            <mxRectangle width="150" height="30" as="alternateBounds" />
          </mxGeometry>
        </mxCell>
        <mxCell id="ShUlsf3ZUrF_PwMzb8wt-36" value="" style="shape=tableRow;horizontal=0;startSize=0;swimlaneHead=0;swimlaneBody=0;fillColor=none;collapsible=0;dropTarget=0;points=[[0,0.5],[1,0.5]];portConstraint=eastwest;top=0;left=0;right=0;bottom=0;" vertex="1" parent="ShUlsf3ZUrF_PwMzb8wt-32">
          <mxGeometry y="60" width="180" height="30" as="geometry" />
        </mxCell>
        <mxCell id="ShUlsf3ZUrF_PwMzb8wt-37" value="" style="shape=partialRectangle;connectable=0;fillColor=none;top=0;left=0;bottom=0;right=0;editable=1;overflow=hidden;whiteSpace=wrap;html=1;" vertex="1" parent="ShUlsf3ZUrF_PwMzb8wt-36">
          <mxGeometry width="30" height="30" as="geometry">
            <mxRectangle width="30" height="30" as="alternateBounds" />
          </mxGeometry>
        </mxCell>
        <mxCell id="ShUlsf3ZUrF_PwMzb8wt-38" value="Thuốc" style="shape=partialRectangle;connectable=0;fillColor=none;top=0;left=0;bottom=0;right=0;align=left;spacingLeft=6;overflow=hidden;whiteSpace=wrap;html=1;" vertex="1" parent="ShUlsf3ZUrF_PwMzb8wt-36">
          <mxGeometry x="30" width="150" height="30" as="geometry">
            <mxRectangle width="150" height="30" as="alternateBounds" />
          </mxGeometry>
        </mxCell>
        <mxCell id="ShUlsf3ZUrF_PwMzb8wt-39" value="" style="shape=tableRow;horizontal=0;startSize=0;swimlaneHead=0;swimlaneBody=0;fillColor=none;collapsible=0;dropTarget=0;points=[[0,0.5],[1,0.5]];portConstraint=eastwest;top=0;left=0;right=0;bottom=0;" vertex="1" parent="ShUlsf3ZUrF_PwMzb8wt-32">
          <mxGeometry y="90" width="180" height="30" as="geometry" />
        </mxCell>
        <mxCell id="ShUlsf3ZUrF_PwMzb8wt-40" value="" style="shape=partialRectangle;connectable=0;fillColor=none;top=0;left=0;bottom=0;right=0;editable=1;overflow=hidden;whiteSpace=wrap;html=1;" vertex="1" parent="ShUlsf3ZUrF_PwMzb8wt-39">
          <mxGeometry width="30" height="30" as="geometry">
            <mxRectangle width="30" height="30" as="alternateBounds" />
          </mxGeometry>
        </mxCell>
        <mxCell id="ShUlsf3ZUrF_PwMzb8wt-41" value="Bệnh nhân" style="shape=partialRectangle;connectable=0;fillColor=none;top=0;left=0;bottom=0;right=0;align=left;spacingLeft=6;overflow=hidden;whiteSpace=wrap;html=1;" vertex="1" parent="ShUlsf3ZUrF_PwMzb8wt-39">
          <mxGeometry x="30" width="150" height="30" as="geometry">
            <mxRectangle width="150" height="30" as="alternateBounds" />
          </mxGeometry>
        </mxCell>
        <mxCell id="ShUlsf3ZUrF_PwMzb8wt-42" value="" style="shape=tableRow;horizontal=0;startSize=0;swimlaneHead=0;swimlaneBody=0;fillColor=none;collapsible=0;dropTarget=0;points=[[0,0.5],[1,0.5]];portConstraint=eastwest;top=0;left=0;right=0;bottom=0;" vertex="1" parent="ShUlsf3ZUrF_PwMzb8wt-32">
          <mxGeometry y="120" width="180" height="30" as="geometry" />
        </mxCell>
        <mxCell id="ShUlsf3ZUrF_PwMzb8wt-43" value="" style="shape=partialRectangle;connectable=0;fillColor=none;top=0;left=0;bottom=0;right=0;editable=1;overflow=hidden;whiteSpace=wrap;html=1;" vertex="1" parent="ShUlsf3ZUrF_PwMzb8wt-42">
          <mxGeometry width="30" height="30" as="geometry">
            <mxRectangle width="30" height="30" as="alternateBounds" />
          </mxGeometry>
        </mxCell>
        <mxCell id="ShUlsf3ZUrF_PwMzb8wt-44" value="Ngày kê đơn" style="shape=partialRectangle;connectable=0;fillColor=none;top=0;left=0;bottom=0;right=0;align=left;spacingLeft=6;overflow=hidden;whiteSpace=wrap;html=1;" vertex="1" parent="ShUlsf3ZUrF_PwMzb8wt-42">
          <mxGeometry x="30" width="150" height="30" as="geometry">
            <mxRectangle width="150" height="30" as="alternateBounds" />
          </mxGeometry>
        </mxCell>
        <mxCell id="ShUlsf3ZUrF_PwMzb8wt-45" value="Bác sĩ" style="rounded=0;whiteSpace=wrap;html=1;" vertex="1" parent="1">
          <mxGeometry x="780" y="405" width="120" height="60" as="geometry" />
        </mxCell>
        <mxCell id="ShUlsf3ZUrF_PwMzb8wt-46" style="edgeStyle=orthogonalEdgeStyle;rounded=0;orthogonalLoop=1;jettySize=auto;html=1;exitX=1;exitY=0.5;exitDx=0;exitDy=0;entryX=0;entryY=0.5;entryDx=0;entryDy=0;" edge="1" parent="1" source="ShUlsf3ZUrF_PwMzb8wt-36" target="ShUlsf3ZUrF_PwMzb8wt-45">
          <mxGeometry relative="1" as="geometry" />
        </mxCell>
        <mxCell id="ShUlsf3ZUrF_PwMzb8wt-47" style="edgeStyle=orthogonalEdgeStyle;rounded=0;orthogonalLoop=1;jettySize=auto;html=1;entryX=0;entryY=0.5;entryDx=0;entryDy=0;endArrow=none;endFill=0;" edge="1" parent="1" source="ShUlsf3ZUrF_PwMzb8wt-22" target="ShUlsf3ZUrF_PwMzb8wt-36">
          <mxGeometry relative="1" as="geometry" />
        </mxCell>
        <mxCell id="ShUlsf3ZUrF_PwMzb8wt-69" style="edgeStyle=orthogonalEdgeStyle;rounded=0;orthogonalLoop=1;jettySize=auto;html=1;entryX=0.5;entryY=0;entryDx=0;entryDy=0;" edge="1" parent="1" source="ShUlsf3ZUrF_PwMzb8wt-48" target="ShUlsf3ZUrF_PwMzb8wt-68">
          <mxGeometry relative="1" as="geometry" />
        </mxCell>
        <mxCell id="ShUlsf3ZUrF_PwMzb8wt-48" value="Bệnh nhân và Bác sĩ" style="shape=table;startSize=30;container=1;collapsible=1;childLayout=tableLayout;fixedRows=1;rowLines=0;fontStyle=1;align=center;resizeLast=1;html=1;" vertex="1" parent="1">
          <mxGeometry x="960" y="370" width="180" height="120" as="geometry" />
        </mxCell>
        <mxCell id="ShUlsf3ZUrF_PwMzb8wt-64" value="" style="shape=tableRow;horizontal=0;startSize=0;swimlaneHead=0;swimlaneBody=0;fillColor=none;collapsible=0;dropTarget=0;points=[[0,0.5],[1,0.5]];portConstraint=eastwest;top=0;left=0;right=0;bottom=0;" vertex="1" parent="ShUlsf3ZUrF_PwMzb8wt-48">
          <mxGeometry y="30" width="180" height="30" as="geometry" />
        </mxCell>
        <mxCell id="ShUlsf3ZUrF_PwMzb8wt-65" value="&lt;b&gt;PK, FK1&lt;/b&gt;" style="shape=partialRectangle;connectable=0;fillColor=none;top=0;left=0;bottom=0;right=0;fontStyle=0;overflow=hidden;whiteSpace=wrap;html=1;" vertex="1" parent="ShUlsf3ZUrF_PwMzb8wt-64">
          <mxGeometry width="80" height="30" as="geometry">
            <mxRectangle width="80" height="30" as="alternateBounds" />
          </mxGeometry>
        </mxCell>
        <mxCell id="ShUlsf3ZUrF_PwMzb8wt-66" value="&lt;b&gt;&lt;u&gt;Bác sĩ&lt;/u&gt;&lt;/b&gt;" style="shape=partialRectangle;connectable=0;fillColor=none;top=0;left=0;bottom=0;right=0;align=left;spacingLeft=6;fontStyle=0;overflow=hidden;whiteSpace=wrap;html=1;" vertex="1" parent="ShUlsf3ZUrF_PwMzb8wt-64">
          <mxGeometry x="80" width="100" height="30" as="geometry">
            <mxRectangle width="100" height="30" as="alternateBounds" />
          </mxGeometry>
        </mxCell>
        <mxCell id="ShUlsf3ZUrF_PwMzb8wt-49" value="" style="shape=tableRow;horizontal=0;startSize=0;swimlaneHead=0;swimlaneBody=0;fillColor=none;collapsible=0;dropTarget=0;points=[[0,0.5],[1,0.5]];portConstraint=eastwest;top=0;left=0;right=0;bottom=1;verticalAlign=bottom;labelPosition=center;verticalLabelPosition=top;align=center;" vertex="1" parent="ShUlsf3ZUrF_PwMzb8wt-48">
          <mxGeometry y="60" width="180" height="30" as="geometry" />
        </mxCell>
        <mxCell id="ShUlsf3ZUrF_PwMzb8wt-50" value="PK, FK2" style="shape=partialRectangle;connectable=0;fillColor=none;top=0;left=0;bottom=0;right=0;fontStyle=1;overflow=hidden;whiteSpace=wrap;html=1;" vertex="1" parent="ShUlsf3ZUrF_PwMzb8wt-49">
          <mxGeometry width="80" height="30" as="geometry">
            <mxRectangle width="80" height="30" as="alternateBounds" />
          </mxGeometry>
        </mxCell>
        <mxCell id="ShUlsf3ZUrF_PwMzb8wt-51" value="Bệnh nhân" style="shape=partialRectangle;connectable=0;fillColor=none;top=0;left=0;bottom=0;right=0;align=left;spacingLeft=6;fontStyle=5;overflow=hidden;whiteSpace=wrap;html=1;" vertex="1" parent="ShUlsf3ZUrF_PwMzb8wt-49">
          <mxGeometry x="80" width="100" height="30" as="geometry">
            <mxRectangle width="100" height="30" as="alternateBounds" />
          </mxGeometry>
        </mxCell>
        <mxCell id="ShUlsf3ZUrF_PwMzb8wt-52" value="" style="shape=tableRow;horizontal=0;startSize=0;swimlaneHead=0;swimlaneBody=0;fillColor=none;collapsible=0;dropTarget=0;points=[[0,0.5],[1,0.5]];portConstraint=eastwest;top=0;left=0;right=0;bottom=0;" vertex="1" parent="ShUlsf3ZUrF_PwMzb8wt-48">
          <mxGeometry y="90" width="180" height="30" as="geometry" />
        </mxCell>
        <mxCell id="ShUlsf3ZUrF_PwMzb8wt-53" value="" style="shape=partialRectangle;connectable=0;fillColor=none;top=0;left=0;bottom=0;right=0;editable=1;overflow=hidden;whiteSpace=wrap;html=1;" vertex="1" parent="ShUlsf3ZUrF_PwMzb8wt-52">
          <mxGeometry width="80" height="30" as="geometry">
            <mxRectangle width="80" height="30" as="alternateBounds" />
          </mxGeometry>
        </mxCell>
        <mxCell id="ShUlsf3ZUrF_PwMzb8wt-54" value="" style="shape=partialRectangle;connectable=0;fillColor=none;top=0;left=0;bottom=0;right=0;align=left;spacingLeft=6;overflow=hidden;whiteSpace=wrap;html=1;" vertex="1" parent="ShUlsf3ZUrF_PwMzb8wt-52">
          <mxGeometry x="80" width="100" height="30" as="geometry">
            <mxRectangle width="100" height="30" as="alternateBounds" />
          </mxGeometry>
        </mxCell>
        <mxCell id="ShUlsf3ZUrF_PwMzb8wt-67" style="edgeStyle=orthogonalEdgeStyle;rounded=0;orthogonalLoop=1;jettySize=auto;html=1;entryX=1;entryY=0.5;entryDx=0;entryDy=0;exitX=-0.007;exitY=0.165;exitDx=0;exitDy=0;exitPerimeter=0;" edge="1" parent="1" source="ShUlsf3ZUrF_PwMzb8wt-49" target="ShUlsf3ZUrF_PwMzb8wt-45">
          <mxGeometry relative="1" as="geometry" />
        </mxCell>
        <mxCell id="ShUlsf3ZUrF_PwMzb8wt-68" value="Bệnh nhân" style="rounded=0;whiteSpace=wrap;html=1;" vertex="1" parent="1">
          <mxGeometry x="990" y="560" width="120" height="60" as="geometry" />
        </mxCell>
      </root>
    </mxGraphModel>
  </diagram>
</mxfile>
